<mxfile host="app.diagrams.net" modified="2023-10-04T19:08:16.308Z" agent="Mozilla/5.0 (X11; Linux x86_64; rv:109.0) Gecko/20100101 Firefox/114.0" etag="NBPl4fH1FJBNjBR2SPBC" version="22.0.2" type="github">
  <diagram name="PÃ¡gina-1" id="Q0zMQ-xZ32Mi5YnVl1sj">
    <mxGraphModel dx="974" dy="1486" grid="1" gridSize="10" guides="1" tooltips="1" connect="1" arrows="1" fold="1" page="1" pageScale="1" pageWidth="1169" pageHeight="827" math="0" shadow="0">
      <root>
        <mxCell id="0" />
        <mxCell id="1" parent="0" />
        <mxCell id="ygTdehbAq-0x71xvV1Jb-1" value="Estudiante" style="rounded=1;arcSize=10;whiteSpace=wrap;html=1;align=center;fillColor=#d5e8d4;strokeColor=#82b366;" vertex="1" parent="1">
          <mxGeometry x="80" y="250" width="100" height="40" as="geometry" />
        </mxCell>
        <mxCell id="ygTdehbAq-0x71xvV1Jb-2" value="Curso" style="rounded=1;arcSize=10;whiteSpace=wrap;html=1;align=center;fillColor=#d5e8d4;strokeColor=#82b366;" vertex="1" parent="1">
          <mxGeometry x="260" y="110" width="100" height="40" as="geometry" />
        </mxCell>
        <mxCell id="ygTdehbAq-0x71xvV1Jb-3" value="Profesor" style="rounded=1;arcSize=10;whiteSpace=wrap;html=1;align=center;fillColor=#d5e8d4;strokeColor=#82b366;" vertex="1" parent="1">
          <mxGeometry x="470" y="110" width="100" height="40" as="geometry" />
        </mxCell>
        <mxCell id="ygTdehbAq-0x71xvV1Jb-4" value="Aula" style="rounded=1;arcSize=10;whiteSpace=wrap;html=1;align=center;fillColor=#d5e8d4;strokeColor=#82b366;" vertex="1" parent="1">
          <mxGeometry x="314" y="300" width="100" height="40" as="geometry" />
        </mxCell>
        <mxCell id="ygTdehbAq-0x71xvV1Jb-5" value="&lt;div&gt;Horario&lt;/div&gt;" style="rounded=1;arcSize=10;whiteSpace=wrap;html=1;align=center;fillColor=#d5e8d4;strokeColor=#82b366;" vertex="1" parent="1">
          <mxGeometry x="240" y="440" width="100" height="40" as="geometry" />
        </mxCell>
        <mxCell id="ygTdehbAq-0x71xvV1Jb-7" value="&lt;div&gt;Materia&lt;/div&gt;" style="rounded=1;arcSize=10;whiteSpace=wrap;html=1;align=center;fillColor=#d5e8d4;strokeColor=#82b366;" vertex="1" parent="1">
          <mxGeometry x="290" y="510" width="100" height="40" as="geometry" />
        </mxCell>
        <mxCell id="ygTdehbAq-0x71xvV1Jb-8" value="Calificacion" style="rounded=1;arcSize=10;whiteSpace=wrap;html=1;align=center;fillColor=#d5e8d4;strokeColor=#82b366;" vertex="1" parent="1">
          <mxGeometry x="160" y="570" width="100" height="40" as="geometry" />
        </mxCell>
        <mxCell id="ygTdehbAq-0x71xvV1Jb-9" value="Asistencia" style="rounded=1;arcSize=10;whiteSpace=wrap;html=1;align=center;fillColor=#d5e8d4;strokeColor=#82b366;" vertex="1" parent="1">
          <mxGeometry x="440" y="585" width="100" height="40" as="geometry" />
        </mxCell>
        <mxCell id="ygTdehbAq-0x71xvV1Jb-10" value="Actividad extracurricular" style="rounded=1;arcSize=10;whiteSpace=wrap;html=1;align=center;fillColor=#d5e8d4;strokeColor=#82b366;" vertex="1" parent="1">
          <mxGeometry x="290" y="660" width="100" height="40" as="geometry" />
        </mxCell>
      </root>
    </mxGraphModel>
  </diagram>
</mxfile>
